{
  "asset": {
    "generator": "Khronos glTF Blender I/O v4.0.44",
    "version": "2.0"
  },
  "extensionsUsed": [
    "KHR_lights_punctual"
  ],
  "extensionsRequired": [
    "KHR_lights_punctual"
  ],
  "extensions": {
    "KHR_lights_punctual": {
      "lights": [
        {
          "color": [
            1,
            1,
            1
          ],
          "intensity": 543.5141306588226,
          "type": "point",
          "name": "Punto"
        }
      ]
    }
  },
  "scene": 0,
  "scenes": [
    {
      "name": "Scene",
      "nodes": [
        0,
        1,
        2,
        3,
        4,
        5,
        6
      ]
    }
  ],
  "nodes": [
    {
      "camera": 0,
      "name": "Camera",
      "rotation": [
        -0.015150286257266998,
        -0.7026650309562683,
        -0.01496836543083191,
        0.7112020254135132
      ],
      "scale": [
        1.5799999237060547,
        2.0399997234344482,
        2.059999465942383
      ],
      "translation": [
        -35.931453704833984,
        4.857930660247803,
        1.906133770942688
      ]
    },
    {
      "mesh": 0,
      "name": "Piano",
      "scale": [
        6.383664608001709,
        6.383664608001709,
        6.383664608001709
      ],
      "translation": [
        -0.8015337586402893,
        0.5278162956237793,
        0.879082977771759
      ]
    },
    {
      "mesh": 1,
      "name": "Piano.001",
      "rotation": [
        -0.7162386775016785,
        0.697765052318573,
        0.004580544773489237,
        0.010256725363433361
      ],
      "scale": [
        6.582491874694824,
        6.582491874694824,
        6.582492351531982
      ],
      "translation": [
        3.7744531631469727,
        2.695761203765869,
        0.6892931461334229
      ]
    },
    {
      "mesh": 2,
      "name": "Scimmia",
      "rotation": [
        -0.2638183832168579,
        -0.5409078598022461,
        0.35009878873825073,
        0.7178088426589966
      ],
      "scale": [
        2.4132766723632812,
        2.4132769107818604,
        2.4132771492004395
      ],
      "translation": [
        0.3084322214126587,
        2.2885217666625977,
        -4.676856517791748
      ]
    },
    {
      "extensions": {
        "KHR_lights_punctual": {
          "light": 0
        }
      },
      "name": "Punto",
      "rotation": [
        -0.7071068286895752,
        0,
        0,
        0.7071068286895752
      ],
      "translation": [
        -6.273257255554199,
        10.932953834533691,
        0
      ]
    },
    {
      "mesh": 3,
      "name": "Cono",
      "scale": [
        2.676480293273926,
        2.676480293273926,
        2.676480293273926
      ],
      "translation": [
        0,
        2.830857038497925,
        1.3658751249313354
      ]
    },
    {
      "mesh": 4,
      "name": "Torus",
      "rotation": [
        0,
        0,
        -0.7547095417976379,
        0.6560590267181396
      ],
      "scale": [
        -1.437387466430664,
        -1.437387466430664,
        -1.4373871088027954
      ],
      "translation": [
        0,
        2.863492012023926,
        7.907430648803711
      ]
    }
  ],
  "cameras": [
    {
      "name": "Camera",
      "perspective": {
        "aspectRatio": 1.7777777777777777,
        "yfov": 0.39959648408210363,
        "zfar": 100,
        "znear": 0.10000000149011612
      },
      "type": "perspective"
    }
  ],
  "materials": [
    {
      "doubleSided": true,
      "name": "Materiale.001",
      "pbrMetallicRoughness": {
        "baseColorFactor": [
          0.800000011920929,
          0.800000011920929,
          0.800000011920929,
          1
        ],
        "metallicFactor": 0,
        "roughnessFactor": 0
      }
    },
    {
      "doubleSided": true,
      "name": "Materiale",
      "pbrMetallicRoughness": {
        "baseColorFactor": [
          0.800000011920929,
          0.800000011920929,
          0.800000011920929,
          1
        ],
        "metallicFactor": 0,
        "roughnessFactor": 0
      }
    },
    {
      "doubleSided": true,
      "name": "Materiale.002",
      "pbrMetallicRoughness": {}
    },
    {
      "doubleSided": true,
      "name": "Materiale.003",
      "pbrMetallicRoughness": {
        "baseColorFactor": [
          0.3438987731933594,
          0.6497440934181213,
          0.7999992966651917,
          1
        ],
        "roughnessFactor": 0.00476190447807312
      }
    },
    {
      "doubleSided": true,
      "name": "Materiale.004",
      "pbrMetallicRoughness": {
        "baseColorFactor": [
          0.7999992966651917,
          0.3029443323612213,
          0.2500016391277313,
          1
        ],
        "roughnessFactor": 0.27142858505249023
      }
    }
  ],
  "meshes": [
    {
      "name": "Piano",
      "primitives": [
        {
          "attributes": {
            "POSITION": 0,
            "NORMAL": 1,
            "TEXCOORD_0": 2
          },
          "indices": 3,
          "material": 0
        }
      ]
    },
    {
      "name": "Piano.001",
      "primitives": [
        {
          "attributes": {
            "POSITION": 4,
            "NORMAL": 5,
            "TEXCOORD_0": 6
          },
          "indices": 7,
          "material": 1
        }
      ]
    },
    {
      "name": "Scimmia",
      "primitives": [
        {
          "attributes": {
            "POSITION": 8,
            "NORMAL": 9,
            "TEXCOORD_0": 10
          },
          "indices": 11,
          "material": 2
        }
      ]
    },
    {
      "name": "Cono",
      "primitives": [
        {
          "attributes": {
            "POSITION": 12,
            "NORMAL": 13,
            "TEXCOORD_0": 14
          },
          "indices": 15,
          "material": 3
        }
      ]
    },
    {
      "name": "Torus",
      "primitives": [
        {
          "attributes": {
            "POSITION": 16,
            "NORMAL": 17,
            "TEXCOORD_0": 18
          },
          "indices": 19,
          "material": 4
        }
      ]
    }
  ],
  "accessors": [
    {
      "bufferView": 0,
      "componentType": 5126,
      "count": 322,
      "max": [
        1.1455248594284058,
        -0.04470513388514519,
        2.1490237712860107
      ],
      "min": [
        -0.6878085732460022,
        -0.06846302002668381,
        -1.8497955799102783
      ],
      "type": "VEC3"
    },
    {
      "bufferView": 1,
      "componentType": 5126,
      "count": 322,
      "type": "VEC3"
    },
    {
      "bufferView": 2,
      "componentType": 5126,
      "count": 322,
      "type": "VEC2"
    },
    {
      "bufferView": 3,
      "componentType": 5123,
      "count": 1536,
      "type": "SCALAR"
    },
    {
      "bufferView": 4,
      "componentType": 5126,
      "count": 5120,
      "max": [
        0.5349656939506531,
        -0.022145995870232582,
        1.7988274097442627
      ],
      "min": [
        -0.9468680024147034,
        -0.24009791016578674,
        -2.1374433040618896
      ],
      "type": "VEC3"
    },
    {
      "bufferView": 5,
      "componentType": 5126,
      "count": 5120,
      "type": "VEC3"
    },
    {
      "bufferView": 6,
      "componentType": 5126,
      "count": 5120,
      "type": "VEC2"
    },
    {
      "bufferView": 7,
      "componentType": 5123,
      "count": 7680,
      "type": "SCALAR"
    },
    {
      "bufferView": 8,
      "componentType": 5126,
      "count": 2015134,
      "max": [
        1.3275002241134644,
        0.9373586773872375,
        0.8222616910934448
      ],
      "min": [
        -1.3274999856948853,
        -0.9712260365486145,
        -0.7756979465484619
      ],
      "type": "VEC3"
    },
    {
      "bufferView": 9,
      "componentType": 5126,
      "count": 2015134,
      "type": "VEC3"
    },
    {
      "bufferView": 10,
      "componentType": 5126,
      "count": 2015134,
      "type": "VEC2"
    },
    {
      "bufferView": 11,
      "componentType": 5125,
      "count": 3022848,
      "type": "SCALAR"
    },
    {
      "bufferView": 12,
      "componentType": 5126,
      "count": 32747,
      "max": [
        0.6397156715393066,
        0.7477483749389648,
        0.6397156715393066
      ],
      "min": [
        -0.6397156715393066,
        -0.9719709157943726,
        -0.6397157311439514
      ],
      "type": "VEC3"
    },
    {
      "bufferView": 13,
      "componentType": 5126,
      "count": 32747,
      "type": "VEC3"
    },
    {
      "bufferView": 14,
      "componentType": 5126,
      "count": 32747,
      "type": "VEC2"
    },
    {
      "bufferView": 15,
      "componentType": 5123,
      "count": 49152,
      "type": "SCALAR"
    },
    {
      "bufferView": 16,
      "componentType": 5126,
      "count": 294912,
      "max": [
        1.3585681915283203,
        0.3630053997039795,
        1.3585683107376099
      ],
      "min": [
        -1.3585680723190308,
        -0.3630053997039795,
        -1.3585683107376099
      ],
      "type": "VEC3"
    },
    {
      "bufferView": 17,
      "componentType": 5126,
      "count": 294912,
      "type": "VEC3"
    },
    {
      "bufferView": 18,
      "componentType": 5126,
      "count": 294912,
      "type": "VEC2"
    },
    {
      "bufferView": 19,
      "componentType": 5125,
      "count": 442368,
      "type": "SCALAR"
    }
  ],
  "bufferViews": [
    {
      "buffer": 0,
      "byteLength": 3864,
      "byteOffset": 0,
      "target": 34962
    },
    {
      "buffer": 0,
      "byteLength": 3864,
      "byteOffset": 3864,
      "target": 34962
    },
    {
      "buffer": 0,
      "byteLength": 2576,
      "byteOffset": 7728,
      "target": 34962
    },
    {
      "buffer": 0,
      "byteLength": 3072,
      "byteOffset": 10304,
      "target": 34963
    },
    {
      "buffer": 0,
      "byteLength": 61440,
      "byteOffset": 13376,
      "target": 34962
    },
    {
      "buffer": 0,
      "byteLength": 61440,
      "byteOffset": 74816,
      "target": 34962
    },
    {
      "buffer": 0,
      "byteLength": 40960,
      "byteOffset": 136256,
      "target": 34962
    },
    {
      "buffer": 0,
      "byteLength": 15360,
      "byteOffset": 177216,
      "target": 34963
    },
    {
      "buffer": 0,
      "byteLength": 24181608,
      "byteOffset": 192576,
      "target": 34962
    },
    {
      "buffer": 0,
      "byteLength": 24181608,
      "byteOffset": 24374184,
      "target": 34962
    },
    {
      "buffer": 0,
      "byteLength": 16121072,
      "byteOffset": 48555792,
      "target": 34962
    },
    {
      "buffer": 0,
      "byteLength": 12091392,
      "byteOffset": 64676864,
      "target": 34963
    },
    {
      "buffer": 0,
      "byteLength": 392964,
      "byteOffset": 76768256,
      "target": 34962
    },
    {
      "buffer": 0,
      "byteLength": 392964,
      "byteOffset": 77161220,
      "target": 34962
    },
    {
      "buffer": 0,
      "byteLength": 261976,
      "byteOffset": 77554184,
      "target": 34962
    },
    {
      "buffer": 0,
      "byteLength": 98304,
      "byteOffset": 77816160,
      "target": 34963
    },
    {
      "buffer": 0,
      "byteLength": 3538944,
      "byteOffset": 77914464,
      "target": 34962
    },
    {
      "buffer": 0,
      "byteLength": 3538944,
      "byteOffset": 81453408,
      "target": 34962
    },
    {
      "buffer": 0,
      "byteLength": 2359296,
      "byteOffset": 84992352,
      "target": 34962
    },
    {
      "buffer": 0,
      "byteLength": 1769472,
      "byteOffset": 87351648,
      "target": 34963
    }
  ],
  "buffers": [
    {
      "uri": "laying-monkey-1_data.bin",
      "byteLength": 89121120
    }
  ]
}